<?xml version="1.0" encoding="utf-8"?>
<!-- Generator: Adobe Illustrator 23.1.0, SVG Export Plug-In . SVG Version: 6.00 Build 0)  -->
<svg version="1.1" id="Calque_1" xmlns="http://www.w3.org/2000/svg" xmlns:xlink="http://www.w3.org/1999/xlink" x="0px" y="0px"
	 viewBox="0 0 141.6 138.1" style="enable-background:new 0 0 141.6 138.1;" xml:space="preserve">
<style type="text/css">
	.st0{fill:#1E1E1E;}
	.st1{fill:#FEFEFE;}
	.st2{fill:#C8C8C8;}
	.st3{fill:#585858;}
	.st4{fill:#565656;}
	.st5{fill:#909090;}
</style>
<g>
	<path class="st0" d="M141.6,76.2c-0.6,1.4-0.4,2.9-0.6,4.3c-2.2,15.9-9.1,29.5-20.5,40.8c-7.5,7.5-16.4,13-26.5,16.5
		c-0.9,0.3-1.8,0.5-2.8,0.3c-1.4-0.2-2.3-1.1-2.5-2.5c-0.1-0.5-0.1-1-0.1-1.5c0-6.2,0-12.5,0-18.7c0-3.3-0.5-6.4-2-9.4
		c-0.7-1.4-1.6-2.6-2.9-3.8c2.9-0.4,5.7-0.8,8.5-1.5c3.6-0.9,7.1-2.2,10.3-4.1c5.2-3.2,9-7.7,11-13.4c2.7-7.6,3.5-15.4,1.6-23.4
		c-1-4-2.9-7.5-5.6-10.6c-0.5-0.6-0.7-1.1-0.4-1.9c1.8-5.8,1.3-11.5-0.8-17.1c-0.2-0.6-0.6-0.7-1.1-0.7c-2.4-0.2-4.7,0.4-6.9,1.2
		c-3.9,1.3-7.4,3.3-10.8,5.6c-0.6,0.4-1.2,0.5-2,0.3c-11.1-2.8-22.2-2.9-33.3,0c-0.8,0.2-1.4,0.1-2.1-0.4c-4.1-2.7-8.3-5.1-13.1-6.3
		c-1.5-0.4-3-0.6-4.5-0.5c-0.6,0-0.9,0.2-1.1,0.8c-2,5.7-2.5,11.4-0.7,17.2c0.2,0.5,0.2,0.9-0.2,1.4c-5.5,6.2-7.3,13.6-6.7,21.8
		c0.4,5.4,1.3,10.7,3.8,15.5c3.7,7.2,9.8,11.4,17.4,13.8c3.5,1.1,7.1,1.7,10.9,2.2c-2.2,2.1-3.7,4.6-4,7.5c-0.3,1.9-1.3,2.5-2.9,3
		c-2.8,0.8-5.5,1.2-8.4,0.6c-4.4-0.8-7.4-3.6-9.7-7.3c-1.5-2.5-3.5-4.6-6.1-5.9c-2.1-1.1-4.3-1.8-6.7-1.2c-1.6,0.4-1.8,1.2-0.7,2.3
		c0.5,0.5,1,1,1.6,1.4c3.7,2.2,6.2,5.5,7.7,9.4c2.7,7,8.1,9.9,15.3,10.5c2.7,0.2,5.3-0.1,8-0.7c1.1-0.2,1.1,0.2,1.1,1
		c0,3.8,0,7.6,0,11.4c0,3.4-2,4.8-5.3,3.8c-8.1-2.7-15.5-6.8-22-12.2C12,114.1,3.4,99.5,0.9,81.7c-3.3-22.8,2.9-42.8,18.7-59.6
		C30.9,10,45,3.1,61.4,0.8c2.3-0.3,4.6-0.4,6.9-0.6c1.6-0.2,3.2,0,4.7-0.1C82.3,0,91,2.2,99.4,5.9c7.4,3.2,14,7.6,19.8,13.1
		c5.8,5.4,10.5,11.5,14.2,18.5c4.1,7.6,6.7,15.7,7.8,24.2c0.2,1.4,0.1,2.8,0.3,4.1c0,0.5,0,1,0,1.4c-0.2,0.6-0.2,1.3,0,1.9
		c0,1.1,0,2.2,0,3.4c-0.3,0.5-0.1,1.1-0.1,1.7c0.1,0.5-0.1,1,0.1,1.5C141.6,75.9,141.6,76,141.6,76.2z"/>
	<path class="st1" d="M141.6,65.9c-0.5-1.4-0.4-2.9-0.6-4.4c-2.2-15.9-9-29.5-20.4-40.8C109.3,9.5,95.8,3,80.1,0.8
		c-2.2-0.3-4.5-0.5-6.8-0.6c-0.1,0-0.1-0.1-0.1-0.1c0,0,0.1-0.1,0.1-0.1c22.4,0,44.9,0,67.3,0c0.8,0,1,0.2,1,1
		C141.6,22.6,141.6,44.3,141.6,65.9z"/>
	<path class="st2" d="M73.3,0c0,0.1,0,0.1,0,0.2c-1.7,0-3.4,0-5,0c0-0.1,0-0.1,0-0.2C70,0,71.6,0,73.3,0z"/>
	<path class="st3" d="M141.6,69.2c-0.4-0.6-0.4-1.3,0-1.9C141.6,68,141.6,68.6,141.6,69.2z"/>
	<path class="st4" d="M141.4,74.3c0-0.6-0.3-1.2,0.2-1.7c0,0.6,0,1.1,0,1.7C141.5,74.4,141.4,74.4,141.4,74.3z"/>
	<path class="st5" d="M141.4,74.3c0.1,0,0.1,0,0.2,0c0,0.5,0,1,0,1.4C141.1,75.3,141.4,74.8,141.4,74.3z"/>
</g>
</svg>
